<svg width="207" height="319" viewBox="0 0 207 319" fill="none" xmlns="http://www.w3.org/2000/svg">
<g filter="url(#filter0_i_59_809)">
<path d="M167.69 55.1693L102.385 64.0051C99.2074 64.435 97.6185 64.65 96.2774 65.2623C95.0903 65.8043 94.0494 66.5703 93.2149 67.5159C92.2723 68.5841 91.6985 69.9606 90.551 72.7135L62.0575 141.066L94.7417 80.6243C95.965 78.3619 96.5767 77.2307 97.4564 76.3443C98.2358 75.5588 99.1666 74.9169 100.207 74.4473C101.382 73.9173 102.741 73.6895 105.459 73.234L167.69 62.8046L167.69 55.1693Z" fill="#FFD60A"/>
<path d="M46.0688 32.6028C45.9947 27.9133 45.9576 25.5686 46.8478 23.7306C47.6324 22.1106 48.9151 20.7712 50.5451 19.8696C52.3947 18.8466 54.8746 18.6403 59.8345 18.2277L167.69 9.25572L149.994 2.97919C148.672 2.5102 148.011 2.27572 147.336 2.12389C146.737 1.98905 146.13 1.90302 145.523 1.86676C144.84 1.82594 144.157 1.86983 142.791 1.95759L43.801 8.32072C38.6546 8.65155 36.0814 8.81695 34.1714 9.85066C32.4888 10.7613 31.1689 12.1351 30.3745 13.8025C29.4727 15.6952 29.5546 18.1228 29.7184 22.9779L35.3341 189.423L48.1759 165.881L46.0688 32.6028Z" fill="#FFD60A"/>
<path d="M35.3341 290.502C35.3341 291.958 35.3341 292.685 35.4487 293.404C35.5504 294.043 35.7193 294.676 35.9529 295.293C36.2159 295.988 36.5884 296.656 37.3335 297.991L48.1759 317.422L48.1759 259.413L35.3341 263.867L35.3341 290.502Z" fill="#FFD60A"/>
<path d="M205.106 66.8291L113.234 84.1419C110.547 84.6481 109.204 84.9012 108.049 85.4503C107.026 85.9369 106.115 86.592 105.355 87.3869C104.499 88.2839 103.911 89.4188 102.736 91.6886L7.97434 274.683L35.3341 263.867L48.1759 259.413L89.6226 240.872C91.1364 240.195 91.8933 239.856 92.5597 239.408C93.1513 239.011 93.6889 238.55 94.1627 238.034C94.6964 237.452 95.1199 236.779 95.9668 235.432L167.69 121.342L205.106 66.8291Z" fill="#FFD60A"/>
</g>
<path d="M168.207 55.208C168.207 55.0618 168.136 54.9181 168.013 54.8176C167.89 54.7171 167.73 54.6707 167.576 54.6914L102.271 63.5272L102.168 63.5411C99.0884 63.9578 97.4296 64.1822 96.0213 64.8252C94.7748 65.3943 93.6818 66.1986 92.8057 67.1915C91.8157 68.3134 91.2167 69.7506 90.1043 72.4192L90.0674 72.5078L61.5739 140.86C61.4766 141.094 61.5999 141.373 61.8538 141.493C62.1076 141.613 62.4023 141.533 62.5226 141.311L95.2068 80.8687C96.4422 78.5841 97.0228 77.5191 97.8481 76.6873C98.5886 75.9411 99.4728 75.3314 100.461 74.8852C101.563 74.3879 102.844 74.1694 105.589 73.7094L167.82 63.2799C168.048 63.2418 168.207 63.0623 168.207 62.8433L168.207 55.208ZM167.777 9.73656C168.013 9.71687 168.191 9.54601 168.206 9.32409C168.221 9.10216 168.069 8.88759 167.839 8.80606L150.143 2.52953L150.101 2.51469C148.818 2.05968 148.127 1.81446 147.418 1.65503C146.789 1.51345 146.152 1.42313 145.515 1.38507L145.523 1.86676L145.515 1.38504C144.797 1.34219 144.083 1.38808 142.759 1.47316L142.715 1.476L43.7246 7.83914L43.7002 7.84068C41.1469 8.00485 39.2013 8.12995 37.6569 8.34452C36.1012 8.56064 34.9136 8.87203 33.8863 9.42806C32.1195 10.3842 30.7336 11.8267 29.8995 13.5775C29.4144 14.5955 29.2039 15.7394 29.1307 17.2186C29.058 18.6876 29.12 20.5238 29.2013 22.9337L29.202 22.9544L34.8176 189.399C34.8251 189.621 34.9935 189.821 35.2257 189.885C35.458 189.949 35.6943 189.86 35.7985 189.669L48.6403 166.127C48.6759 166.061 48.6938 165.988 48.6926 165.912L46.5855 32.6344C46.5483 30.2824 46.5212 28.5452 46.6125 27.1654C46.7033 25.7917 46.9101 24.8077 47.3216 23.9581C48.067 22.4191 49.2855 21.1467 50.8341 20.2901C51.6891 19.8172 52.7069 19.5223 54.1483 19.296C55.596 19.0686 57.4334 18.9155 59.921 18.7086L167.777 9.73656ZM47.7217 317.617C47.8344 317.819 48.0738 317.935 48.3029 317.898C48.5321 317.861 48.6926 317.681 48.6926 317.46L48.6926 259.733L89.8753 241.311L89.923 241.289C91.3918 240.632 92.1832 240.278 92.8831 239.808C93.5043 239.39 94.0687 238.906 94.5662 238.364C95.1267 237.754 95.5695 237.05 96.3913 235.742L96.4179 235.7L168.137 121.618L205.548 67.1121C205.658 66.9513 205.646 66.7358 205.518 66.5687C205.389 66.4016 205.17 66.3171 204.966 66.3556L113.093 83.6684L113.007 83.6845C110.403 84.1754 108.999 84.4398 107.786 85.0164C106.712 85.5273 105.755 86.2152 104.958 87.0498C104.058 87.9919 103.444 89.1774 102.304 91.3784L102.267 91.4509L7.50565 274.446C7.41301 274.625 7.45691 274.848 7.61505 275.002C7.77321 275.157 8.01088 275.208 8.20728 275.13L34.8173 264.61L34.8173 290.463L34.8174 290.509C34.8173 291.921 34.8173 292.682 34.9377 293.438C35.0445 294.108 35.2219 294.772 35.4671 295.42C35.7433 296.151 36.133 296.849 36.8563 298.145L36.8792 298.186L47.7217 317.617Z" stroke="#FFD60A" stroke-linecap="round" stroke-linejoin="round"/>
<defs>
<filter id="filter0_i_59_809" x="0.699707" y="0.886108" width="207.44" height="321.501" filterUnits="userSpaceOnUse" color-interpolation-filters="sRGB">
<feFlood flood-opacity="0" result="BackgroundImageFix"/>
<feBlend mode="normal" in="SourceGraphic" in2="BackgroundImageFix" result="shape"/>
<feColorMatrix in="SourceAlpha" type="matrix" values="0 0 0 0 0 0 0 0 0 0 0 0 0 0 0 0 0 0 127 0" result="hardAlpha"/>
<feOffset dx="2" dy="4"/>
<feGaussianBlur stdDeviation="3"/>
<feComposite in2="hardAlpha" operator="arithmetic" k2="-1" k3="1"/>
<feColorMatrix type="matrix" values="0 0 0 0 0 0 0 0 0 0 0 0 0 0 0 0 0 0 0.35 0"/>
<feBlend mode="normal" in2="shape" result="effect1_innerShadow_59_809"/>
</filter>
</defs>
</svg>
